<svg id="Layer_1" xmlns="http://www.w3.org/2000/svg" viewBox="0 0 250 250"><style>.st0{fill:#68bc49;fill-opacity:0}.st1{fill:#0033a0}.st2{fill:#fff}.st3{fill:#e13eaf}</style><title>baskin-robbins-logo</title><path class="st0" d="M0 0h250v250H0z"/><path class="st1" d="M125 75c-27.6 0-50 22.4-50 50s22.4 50 50 50 50-22.4 50-50-22.4-50-50-50z"/><circle class="st2" cx="125" cy="125" r="45.1"/><path class="st3" d="M125 172.4c-26.2 0-47.4-21.2-47.4-47.4S98.8 77.6 125 77.6s47.4 21.2 47.4 47.4-21.2 47.4-47.4 47.4zm0-90.2c-23.7 0-42.8 19.2-42.8 42.8s19.2 42.8 42.8 42.8 42.8-19.2 42.8-42.8c0-23.6-19.2-42.8-42.8-42.8z"/><path class="st3" d="M138 93.5l-8.5-.6-.7 37.3 5.2.5z"/><path class="st1" d="M106.7 94.7l-9.5 1.7 7 33.6 3.9-.1z"/><path class="st3" d="M107.9 93.3s12.9-1.5 16.4 6.9S119 112 119 112s9.6 1.8 6.8 10.5-16.3 7.8-16.3 7.8l.1-3s7.3.7 8.5-5.2c1.2-6.2-7.6-6.2-7.6-6.2l-.3-4.4s6.6-.3 6.8-5.6-8.5-4.6-8.5-4.6l-.6-8z"/><path class="st1" d="M138.9 94.8s12.9 0 13.8 9.9-9.6 13.1-9.6 13.1l4.5 11.5-4.1.8-7-11 .5-4.2s6.1-1.3 7-5c1.5-5.9-5.8-7-5.8-7l.7-8.1zM104.1 136.5c.6-.4 1.3-.7 2-.8 2.4-.3 4.6 1.3 4.9 3.5.3 2.3-1.4 4.3-3.8 4.7-.7.1-1.5 0-2.1-.2l.1.8-2.3.3-1.5-11.3 2.3-.3.4 3.3zm2.3 1.3c-1.1.1-1.9 1.1-1.8 2.2.2 1.1 1.2 1.8 2.3 1.7 1.1-.1 1.9-1.1 1.8-2.2-.2-1.1-1.2-1.8-2.3-1.7M118.5 136.4l2.3.1-.7 8.9-2.3-.1.1-.8c-.7.3-1.4.4-2.1.4-2.3 0-4.2-1.9-4.2-4.2v-.1c.3-2.5 2.6-4.2 5.1-3.9.6.1 1.2.3 1.7.6l.1-.9zm-4.5 4.2c0 1.1.9 2 2 2.1 1.1.1 2.1-.7 2.2-1.9 0-1.1-.9-2-2-2-1.1-.1-2.1.7-2.2 1.8M126.2 136.1l-.3.1c-1.1.3-1.8 1.1-1.5 1.8l1.5 3.2c.7 1.5-.7 3.3-3.1 3.8l-.3.1-.7-1.5.3-.1c1.1-.3 1.8-1.1 1.5-1.8l-1.5-3.2c-.7-1.5.7-3.3 3.1-3.8l.3-.1.7 1.5zM131.4 140.1l-4.6 4.2.8-12.4 2.3.1-.5 6.9 4.1-4.1 1.7 1.4-2.2 2.3 2.5 3.5-1.8 1.2zM139.1 134.4c0 .8-.7 1.4-1.5 1.3-.7 0-1.3-.6-1.3-1.2 0-.7.6-1.3 1.3-1.3.9-.1 1.5.5 1.5 1.2m-.1 2l.2 7.6-2.3.1-.3-7.6 2.4-.1zM149.1 136.5l-.5 9.2-5.4-5.8-.1 4.1h-2.4l.5-9.1 5.4 5.7.1-4.1zM101.9 146.8l2.6-.2.1 1c.7-.4 1.5-.7 2.3-.7h.3l.2 2.4h-.3c-1.2.1-2.2 1.1-2.1 2.3l.4 4.7-2.6.2-.9-9.7zM110.8 148.6c2 .1 3.6 1.9 3.5 3.9-.1 2-1.9 3.6-3.9 3.5-2-.1-3.5-1.7-3.5-3.7 0-2.1 1.8-3.8 3.9-3.7m.1 5.4c1-.1 1.7-.9 1.6-1.9s-.9-1.7-1.9-1.6c-.9.1-1.6.8-1.6 1.8s.9 1.8 1.9 1.7M117.8 149.7c.6-.3 1.2-.4 1.9-.4 2.1 0 3.8 1.7 3.9 3.8-.1 2.1-2 3.7-4.1 3.6-.7 0-1.3-.2-1.9-.5v.7l-2.1-.1.3-10.2 2.1.1-.1 3zm1.8 1.5c-1 0-1.8.7-1.9 1.7 0 1 .8 1.8 1.8 1.8 1 .1 1.8-.6 2-1.5.1-1-.6-1.8-1.5-2h-.4M126.2 148c.6-.3 1.2-.5 1.9-.5 2-.2 3.9 1.2 4.1 3.2s-1.2 3.9-3.2 4.1h-.6c-.7 0-1.3-.1-1.9-.4v.7l-2.1.1-.4-10.2 2.1-.1.1 3.1zm2 1.4c-1 .1-1.7 1-1.6 1.9.1 1 1 1.7 1.9 1.6.9-.1 1.6-.9 1.6-1.8-.1-1-.9-1.8-1.9-1.7M135.6 145.9c-.1.7-.7 1.2-1.3 1.1-.7 0-1.2-.5-1.2-1.2.1-.7.7-1.2 1.4-1.1.6.1 1.1.6 1.1 1.2m-.3 1.8l-.4 6.8-2.1-.1.4-6.8 2.1.1zM144.2 147.5l-.3 8.6-5-5.5v3.7h-2.1l.1-9.1 5.2 6v-3.7zM149.4 148l-.3.1c-1.1.2-1.8 1-1.5 1.8l1.4 3.4c.7 1.6-.7 3.3-3.1 3.8l-.3.1-.7-1.6.3-.1c1.1-.2 1.8-1 1.5-1.8l-1.4-3.4c-.7-1.6.7-3.3 3.1-3.8l.3-.1.7 1.6zM150 149.9c0-.9.8-1.7 1.7-1.7s1.7.8 1.7 1.7c0 .9-.8 1.7-1.7 1.7-.9 0-1.7-.8-1.7-1.7zm3.1 0c0-.7-.5-1.4-1.3-1.4h-.1c-.8 0-1.4.6-1.4 1.4 0 .8.6 1.4 1.4 1.4.7 0 1.4-.5 1.4-1.3v-.1zm-.6.9h-.4l-.3-.5H151.5v.5h-.3v-1.9h.6c.4-.1.7.2.8.6v.1c0 .3-.1.5-.4.6l.3.6zm-.8-.7c.2 0 .4-.1.5-.3v-.1c0-.2-.1-.4-.4-.4H151.5v.8h.2z"/></svg>