<svg id="Layer_1" data-name="Layer 1" xmlns="http://www.w3.org/2000/svg" viewBox="0 0 250 250"><defs><style>.cls-1{fill:#68bc49;opacity:0}.cls-2{fill:#0033a0}.cls-3{fill:#fff}.cls-4{fill:#e13eaf}</style></defs><title>baskin-robbins-logo</title><path class="cls-1" d="M0 0h250v250H0z"/><path class="cls-2" d="M125 25a100 100 0 1 0 100 100A100.11 100.11 0 0 0 125 25z"/><circle class="cls-3" cx="125" cy="125" r="90.27"/><path class="cls-4" d="M125 219.87A94.87 94.87 0 1 1 219.86 125 95 95 0 0 1 125 219.87zm0-180.53A85.67 85.67 0 1 0 210.66 125 85.77 85.77 0 0 0 125 39.33z"/><path class="cls-4" d="M150.96 61.97l-16.92-1.17-1.39 74.68 10.29.95 8.02-74.46z"/><path class="cls-2" d="M88.45 64.48l-19.07 3.3 14.02 67.3 7.81-.37-2.76-70.23z"/><path class="cls-4" d="M90.86 61.52s25.78-3 32.88 13.89S113 99.08 113 99.08s19.29 3.69 13.69 21.05S94 135.73 94 135.73l.19-5.94s14.65 1.45 16.95-10.48C113.49 107 96 106.9 96 106.9l-.61-8.9s13.19-.54 13.66-11.13-17.1-9.27-17.1-9.27z"/><path class="cls-2" d="M152.83 64.56s25.89.08 27.68 19.83-19.26 26.2-19.26 26.2l9 23-8.13 1.56-14.07-21.92 1.05-8.37s12.14-2.68 14-10c2.91-11.72-11.62-14-11.62-14zM83.15 147.92a8.81 8.81 0 0 1 4-1.53c4.86-.61 9.27 2.54 9.87 7.06s-2.85 8.69-7.7 9.31a8.94 8.94 0 0 1-4.29-.48l.26 1.6-4.63.58-3-22.62 4.62-.58zm4.59 2.76a4.11 4.11 0 0 0-3.64 4.4 4.15 4.15 0 0 0 4.67 3.36 4.11 4.11 0 0 0 3.64-4.4 4.18 4.18 0 0 0-4.67-3.36M111.91 147.82l4.66.23-1.32 17.73-4.66-.22.2-1.62a8.93 8.93 0 0 1-4.24.81 8.4 8.4 0 0 1-8.3-8.67 9 9 0 0 1 13.45-6.59zm-9 8.47a4.07 4.07 0 0 0 3.94 4.1 4.19 4.19 0 0 0 4.43-3.71 4.07 4.07 0 0 0-3.94-4.1 4.23 4.23 0 0 0-4.43 3.71M127.34 147.24l-.69.17c-2.24.54-3.59 2.24-3 3.64l2.94 6.47c1.4 3.08-1.4 6.53-6.25 7.7l-.68.17-1.34-2.93.69-.17c2.24-.54 3.6-2.22 3-3.65l-2.94-6.46c-1.4-3.08 1.4-6.52 6.24-7.69l.69-.17zM137.71 155.28l-9.09 8.25 1.53-24.75 4.64.3-1.01 13.75 8.17-8.3 3.37 2.95-4.39 4.5 5.13 6.95-3.75 2.52-4.6-6.17zM153.3 143.84a2.8 2.8 0 0 1-5.58.19 2.66 2.66 0 0 1 2.7-2.7 2.71 2.71 0 0 1 2.89 2.51m-.31 3.93l.49 15.23-4.65.15-.54-15.19zM173.15 148.03l-1.04 18.4-10.78-11.55-.2 8.18-4.67-.06.87-18.2 10.96 11.35.2-8.19 4.66.07zM78.89 168.52l5.17-.39.23 1.93a9.76 9.76 0 0 1 4.55-1.48h.53l.4 4.79h-.53a4.54 4.54 0 0 0-4.24 4.69l.72 9.33-5.17.39zM96.6 172.18a7.42 7.42 0 1 1-7.83 7.48 7.68 7.68 0 0 1 7.83-7.48m.12 10.9a3.51 3.51 0 1 0-3.8-3.46 3.7 3.7 0 0 0 3.8 3.46M110.59 174.36a7.93 7.93 0 0 1 3.79-.82 7.63 7.63 0 0 1 7.73 7.58 7.74 7.74 0 0 1-8.16 7.21 7.87 7.87 0 0 1-3.74-1l-.07 1.37-4.19-.1.59-20.46 4.19.1zm3.67 3.06a3.75 3.75 0 0 0-3.86 3.42 3.68 3.68 0 0 0 3.66 3.59 3.52 3.52 0 1 0 .2-7M127.45 170.93a7.81 7.81 0 0 1 3.72-1 7.42 7.42 0 1 1 .55 14.78 7.88 7.88 0 0 1-3.8-.78l.07 1.37-4.18.14-.75-20.44 4.18-.14zm3.87 2.84a3.52 3.52 0 1 0 3.89 3.38 3.76 3.76 0 0 0-3.89-3.38M146.22 166.9a2.48 2.48 0 0 1-2.64 2.22 2.39 2.39 0 0 1-2.37-2.46 2.51 2.51 0 0 1 5 .24m-.63 3.48l-.76 13.62-4.18-.21.76-13.61zM163.34 170.09l-.45 17.02-10.05-10.88-.05 7.34-4.18-.06.13-18.06 10.36 11.93.06-7.35 4.18.06zM173.71 171l-.69.13c-2.2.41-3.53 2.07-2.91 3.56l2.87 6.82c1.37 3.25-1.4 6.63-6.16 7.52l-.68.13-1.31-3.1.69-.12c2.2-.42 3.54-2.05 2.91-3.56l-2.86-6.82c-1.36-3.26 1.4-6.6 6.16-7.51l.68-.13zM175 174.79a3.43 3.43 0 0 1 6.86 0 3.43 3.43 0 0 1-6.86 0zm6.24 0a2.7 2.7 0 0 0-2.83-2.82 2.81 2.81 0 0 0 0 5.62 2.7 2.7 0 0 0 2.85-2.8zm-1.3 1.83h-.75l-.61-.92a1 1 0 0 1-.22 0h-.47v.91h-.69v-3.71h1.14a1.41 1.41 0 0 1 1.6 1.41 1.31 1.31 0 0 1-.74 1.21zm-1.6-1.46a.77.77 0 0 0 .91-.83.79.79 0 0 0-.91-.85h-.45v1.68h.45z"/></svg>