<svg id="Layer_1" data-name="Layer 1" xmlns="http://www.w3.org/2000/svg" viewBox="0 0 990 256.93"><defs><style>.cls-1,.cls-2{fill:#f4f4f4}.cls-2{fill-rule:evenodd}</style></defs><title>logo-white</title><path class="cls-1" d="M208.53 193.22h-34.05v-77.65a41 41 0 0 0-.77-7.09 23.82 23.82 0 0 0-3.35-8.38 21 21 0 0 0-7.48-7q-4.9-2.84-13.41-2.84-11.35 0-18.57 7t-7.22 18.31v77.65H89.61v-77.65a41 41 0 0 0-.77-7.09 25.21 25.21 0 0 0-3.22-8.38 19.84 19.84 0 0 0-7.35-7q-4.9-2.84-13.41-2.84-11.61 0-18.7 7t-7.09 18.31v77.65H5v-76.87a63.63 63.63 0 0 1 4.26-23.48A56.4 56.4 0 0 1 21.25 74a54.3 54.3 0 0 1 18.83-12.47A65.14 65.14 0 0 1 64.85 57a56.67 56.67 0 0 1 24.38 5 50.91 50.91 0 0 1 17.93 13.8A53.14 53.14 0 0 1 125.47 62a56.28 56.28 0 0 1 24-5 66.61 66.61 0 0 1 24.89 4.38 51.62 51.62 0 0 1 30.18 31 68.84 68.84 0 0 1 4 24v76.87z" transform="translate(-5 -1.3)"/><path class="cls-2" d="M289.6 165.1a30.31 30.31 0 0 0 12.69-2.71 31.66 31.66 0 0 0 10.49-7.74 36.93 36.93 0 0 0 7.12-12 44.12 44.12 0 0 0 2.59-15.48 46.3 46.3 0 0 0-2.59-15.74 37.9 37.9 0 0 0-7.12-12.38 32.45 32.45 0 0 0-10.49-8 29.14 29.14 0 0 0-12.69-2.84 30 30 0 0 0-12.82 2.84 30.72 30.72 0 0 0-10.49 8 39.25 39.25 0 0 0-7 12.38 46.3 46.3 0 0 0-2.59 15.74 44.12 44.12 0 0 0 2.59 15.48 38.24 38.24 0 0 0 7 12 30 30 0 0 0 10.49 7.74 31.18 31.18 0 0 0 12.82 2.71zM289.47 57a64.46 64.46 0 0 1 26.05 5.29A66.46 66.46 0 0 1 336.81 77a69.69 69.69 0 0 1 14.45 22.18 71.76 71.76 0 0 1 5.29 27.73 70.8 70.8 0 0 1-5.29 27.6 68.55 68.55 0 0 1-14.45 21.93A67.49 67.49 0 0 1 315.52 191a66.83 66.83 0 0 1-52.11 0 66 66 0 0 1-21.15-14.57 69.68 69.68 0 0 1-14.32-21.93 70.8 70.8 0 0 1-5.29-27.6 71.76 71.76 0 0 1 5.29-27.73A70.85 70.85 0 0 1 242.26 77a64.72 64.72 0 0 1 47.21-20zM475.8 127.18a41.51 41.51 0 0 0-2.72-15.18 39.07 39.07 0 0 0-7.38-12.12 33 33 0 0 0-10.87-8A31.42 31.42 0 0 0 441.62 89a30.28 30.28 0 0 0-13.21 3 34.64 34.64 0 0 0-10.87 8.13 39.06 39.06 0 0 0-7.38 12.12 40.79 40.79 0 0 0-2.72 15 39.09 39.09 0 0 0 2.72 14.57 37.83 37.83 0 0 0 7.38 11.87 35.63 35.63 0 0 0 10.87 8 30.27 30.27 0 0 0 13.21 3 31.42 31.42 0 0 0 13.21-2.84 33.86 33.86 0 0 0 10.87-7.87 37.8 37.8 0 0 0 7.38-11.98 39.78 39.78 0 0 0 2.72-14.83zm34.05-.39a72.83 72.83 0 0 1-5 27.14A67.79 67.79 0 0 1 490.76 176a65.59 65.59 0 0 1-21.54 14.86 68.31 68.31 0 0 1-27.47 5.43A69.08 69.08 0 0 1 414 190.9a65.58 65.58 0 0 1-21.54-14.83A67.65 67.65 0 0 1 378.42 154a72.57 72.57 0 0 1-5-27.09V1.3h34.05l.26 71.58A45.82 45.82 0 0 1 425 61a59.16 59.16 0 0 1 21.41-3.77 57.75 57.75 0 0 1 24.76 5.43 61.57 61.57 0 0 1 20.12 15 74.39 74.39 0 0 1 13.54 22.22 72.12 72.12 0 0 1 5 26.88z" transform="translate(-5 -1.3)"/><path class="cls-1" d="M859 193q-14.7 1.55-25.8-1.81a43.58 43.58 0 0 1-18.57-10.83 48.44 48.44 0 0 1-11.35-18.44 73.69 73.69 0 0 1-3.87-24.64V26.58h34.05v33.79h24v30.18h-24v46.95q0 13.93 6.32 19.61T859 162v31zM995 198.64a66.84 66.84 0 0 1-4.26 24.36 54.72 54.72 0 0 1-12 18.83A52.75 52.75 0 0 1 960.17 254a65.84 65.84 0 0 1-24.25 4.26 63.32 63.32 0 0 1-20.64-3.35 55.8 55.8 0 0 1-30.18-24.25 53.9 53.9 0 0 1-7-18.83h35.34a16 16 0 0 0 7.61 11.09q6.06 3.61 14.83 3.61a28.06 28.06 0 0 0 11.74-2.19 20.7 20.7 0 0 0 7.74-5.93 23.6 23.6 0 0 0 4.26-8.26 33.19 33.19 0 0 0 1.29-9.16v-15.51a43.41 43.41 0 0 1-13.67 8 48.36 48.36 0 0 1-16.77 2.84 56.38 56.38 0 0 1-22.19-4.26 49.49 49.49 0 0 1-17.15-11.87 52.82 52.82 0 0 1-11-18.31 69.79 69.79 0 0 1-3.79-23.88V60.37h34.05V138a43.14 43.14 0 0 0 .77 7.22 25 25 0 0 0 3.35 8.64 21.57 21.57 0 0 0 7.49 7.24q4.9 3 13.16 3 11.61 0 18.7-7.35t7.09-18.7V60.37H995v138.27z" transform="translate(-5 -1.3)"/><path class="cls-1" d="M558.89 191.92h-34.05V59.07h34.05v132.85z"/><path class="cls-1" d="M529.86 21.59a16.75 16.75 0 1 1 16.75 16.75 16.75 16.75 0 0 1-16.75-16.75z" transform="translate(-5 -1.3)"/><path class="cls-1" d="M666.58 191.92h-36.63L579.64 59.07h35.6l33.02 99.06 33.28-99.06h35.08l-50.04 132.85z"/><path class="cls-1" d="M576.62 21.59a16.75 16.75 0 1 1 16.75 16.75 16.75 16.75 0 0 1-16.75-16.75zM693.67 21.59a16.75 16.75 0 1 1 16.75 16.75 16.75 16.75 0 0 1-16.75-16.75z" transform="translate(-5 -1.3)"/><path class="cls-1" d="M771.18 191.92h-34.05V59.07h34.05v132.85z"/><path class="cls-1" d="M742.64 21.59a16.75 16.75 0 1 1 16.75 16.75 16.75 16.75 0 0 1-16.75-16.75z" transform="translate(-5 -1.3)"/></svg>