<svg id="Layer_1" xmlns="http://www.w3.org/2000/svg" viewBox="0 0 990 260.2"><style>.st0{fill:#8dc63f}</style><path class="st0" d="M205.6 116.5c0-8.9-1.3-17-4-24.3-2.7-7.3-6.6-13.6-11.8-18.9-5.1-5.3-11.4-9.4-18.8-12.4s-15.8-4.4-25.2-4.4c-9.4 0-17.8 1.5-25.2 4.4-6.9 2.8-12.8 6.6-17.7 11.4-4.9-4.8-10.8-8.6-17.7-11.4-7.4-3-15.8-4.4-25.2-4.4-9.4 0-17.8 1.5-25.2 4.4-7.4 3-13.7 7.1-18.8 12.4-5.3 5.3-9.2 11.6-12 18.9-2.7 7.3-4 15.4-4 24.3v30.7c0 .1.1.2.2.2-.1 0-.2.1-.2.2V176c0 9.4 7.1 17.9 16.5 18.4 9.9.4 18-7.4 18-17.2v-29.6c0-.1-.1-.2-.2-.2.1 0 .2-.1.2-.2v-31.4c0-1.9.3-4.3.8-7.2.5-2.9 1.7-5.7 3.4-8.5S43 95 46.3 93c3.3-1.9 7.8-2.9 13.6-2.9s10.3 1 13.6 2.9c3.3 1.9 5.8 4.3 7.6 7.1 1.7 2.8 2.9 5.6 3.4 8.5.5 2.9.8 5.3.8 7.2v31.4c0 .1.1.2.2.2-.1 0-.2.1-.2.2v29.6c0 9.3 7.4 16.8 16.6 17.1.2 0 .4.1.6.1h.8c.2 0 .4-.1.6-.1 9.2-.4 16.6-7.8 16.6-17.1v-29.6c0-.1-.1-.2-.2-.2.1 0 .2-.1.2-.2v-31.4c0-1.9.3-4.3.8-7.2.5-2.9 1.7-5.7 3.4-8.5s4.3-5.1 7.6-7.1c3.3-1.9 7.8-2.9 13.6-2.9s10.3 1 13.6 2.9c3.3 1.9 5.8 4.3 7.6 7.1 1.7 2.8 2.9 5.6 3.4 8.5.5 2.9.8 5.3.8 7.2v31.4c0 .1.1.2.2.2-.1 0-.2.1-.2.2v29.6c0 9.8 8.2 17.7 18 17.2 9.4-.4 16.5-8.9 16.5-18.4v-28.5c0-.1-.1-.2-.2-.2.1 0 .2-.1.2-.2v-30.6zM972.8 59.8c-5.3 0-10.4 2.5-13.6 6.7-4.1 5.2-3.6 11.2-3.6 17.5v47.9c0 5.6 0 11.2-1.7 16.5-6.4 20.9-39.3 22.2-47.4 1.9-2.2-5.5-2.2-11.5-2.2-17.4 0-16.1 0-32.1.1-48.2 0-6.2.6-12.4-3.2-17.7-3.2-4.5-8.5-7.2-14-7.2-9.5 0-17.3 7.7-17.3 17.3v61.4c0 20.3 7.8 40 25.6 51.1 17.9 11.2 43.8 11.1 60.2-3.1-.7.6.1 6.6.1 7.8 0 3.1 0 6.2-.3 9.2-.5 5.6-1.9 11.7-5.4 16.2-6 7.6-16.7 9.5-25.8 7.7-10-2-18.4-12.6-29.1-7.6-5.7 2.6-9.5 8.7-9.4 15 .1 6.9 5.2 12.1 10.6 15.6 10 6.4 22 9.7 33.9 9.7 9.1 0 17.2-1.4 24.6-4.3 7.3-2.9 13.6-7 18.8-12.3 5.2-5.3 9.3-11.7 12.2-19.1 2.9-7.4 4.3-15.6 4.3-24.7V77c-.2-9.5-7.9-17.2-17.4-17.2zM841 162.2l-.9-.3c-2.7-.8-5.1-2.1-6.9-3.8-4.3-3.8-6.4-10.5-6.4-19.9V90.7h8.9c8.4 0 15.3-6.8 15.3-15.3s-6.8-15.3-15.3-15.3h-8.9v-17c0-9.5-7.7-17.2-17.3-17.2-9.5 0-17.2 7.7-17.2 17.2V138c0 4.5.4 25.5 10.8 38.2 6.4 7.7 17.9 18.2 32.2 18.2 9.2 0 16.6-7.4 16.6-16.6 0-7.2-4.6-13.3-10.9-15.6z"/><circle class="st0" cx="751.1" cy="20.3" r="17"/><path class="st0" d="M751.3 59.6c-9.5 0-17.2 7.7-17.2 17.2v100.1c0 9.5 7.7 17.2 17.2 17.2s17.2-7.7 17.2-17.2V76.8c.1-9.5-7.6-17.2-17.2-17.2zM335.8 76.8c-6.2-6.4-13.4-11.3-21.6-14.9-8.2-3.6-17-5.4-26.4-5.4-9.4 0-18.2 1.8-26.4 5.4-8.2 3.6-15.3 8.5-21.4 14.9-6.1 6.4-10.9 13.8-14.5 22.5-3.6 8.6-5.4 18-5.4 28.1 0 10.1 1.8 19.4 5.4 28 3.6 8.5 8.4 15.9 14.5 22.2 6.1 6.3 13.2 11.2 21.4 14.8 8.2 3.6 17 5.4 26.4 5.4 9.4 0 18.2-1.8 26.4-5.4 8.2-3.6 15.4-8.5 21.6-14.8 6.2-6.3 11.1-13.7 14.6-22.2 3.6-8.5 5.4-17.9 5.4-28 0-10.1-1.8-19.5-5.4-28.1-3.5-8.7-8.4-16.2-14.6-22.5zm-17.1 66.5c-1.7 4.7-4.2 8.8-7.2 12.2-3.1 3.4-6.6 6-10.6 7.8-4 1.8-8.3 2.7-12.9 2.7-4.5 0-8.9-.9-13-2.7-4.1-1.8-7.7-4.4-10.6-7.8-3-3.4-5.3-7.4-7.1-12.2-1.7-4.7-2.6-9.9-2.6-15.7 0-5.7.9-11.1 2.6-15.9 1.7-4.9 4.1-9.1 7.1-12.5 3-3.5 6.5-6.2 10.6-8.1 4.1-1.9 8.4-2.9 13-2.9 4.5 0 8.8 1 12.9 2.9 4 1.9 7.6 4.6 10.6 8.1 3.1 3.5 5.5 7.7 7.2 12.5 1.7 4.9 2.6 10.2 2.6 15.9 0 5.8-.9 11-2.6 15.7zM442 56.8c-12.6 0-24.4 3.5-34.6 9.5V17.2c0-9.5-7.7-17.2-17.2-17.2S373 7.7 373 17.2v109.9c0 38.8 30.9 70.3 69.1 70.3 38.2 0 69.1-31.5 69.1-70.3-.1-38.8-31-70.3-69.2-70.3zm0 108.6c-19.1 0-34.6-17.1-34.6-38.2S422.9 89 442 89s34.6 17.1 34.6 38.2-15.5 38.2-34.6 38.2z"/><circle class="st0" cx="548.3" cy="20.3" r="17"/><path class="st0" d="M548.6 59.6c-9.5 0-17.2 7.7-17.2 17.2v100.1c0 9.5 7.7 17.2 17.2 17.2s17.2-7.7 17.2-17.2V76.8c0-9.5-7.7-17.2-17.2-17.2zM703.5 59.2c-8.7-3.9-18.9 0-22.8 8.7l-30.7 69-30.7-69c-3.9-8.7-14.1-12.6-22.8-8.7s-12.6 14.1-8.7 22.8l46.3 104c2.7 6.1 8.6 9.8 14.9 10.1.3 0 .7.1 1 .1.3 0 .7-.1 1-.1 6.3-.3 12.1-4 14.9-10.1l46.3-104.1c3.9-8.7 0-18.9-8.7-22.7z"/></svg>