<svg id="Layer_1" data-name="Layer 1" xmlns="http://www.w3.org/2000/svg" viewBox="0 0 250 250"><defs><style>.cls-1{fill:#68bc49;opacity:0}.cls-2{fill:#ffe01b}.cls-3{fill:#98bee5}.cls-4{fill:#005caa}.cls-5{fill:#ec1c2e}.cls-6{fill:#fff}</style></defs><title>sonic-logo</title><path class="cls-1" d="M0 0h250v250H0z"/><path id="_Path_" data-name="&amp;lt;Path&amp;gt;" class="cls-2" d="M194.78 128.78c-3-5.61 0-10.22 3.76-14.36l20.71-23c3.63-4 4.15-5.39 3.81-6.54a2.28 2.28 0 0 0-1.79-1.37c-1.33-.37-4.71-.24-8.42.29-3.3.47-11.79 2-14 2.41l-153.4 30.13c-4.8.94-7.24 3.69-7.26 8.18 0 6.22 5.14 8.59 9.49 9.49 9.2 1.9 149.73 31.13 151.15 31.42 8.66 2 10.62.76 12-.77 1-1.09 1.36-3.39.15-5.65z"/><path id="_Path_2" data-name="&amp;lt;Path&amp;gt;" class="cls-3" d="M125 96.94L51.82 82.58c-2.26-.44-10.68-1.9-14.17-2.34-1.95-.24-6.59-.63-9.17.17s-3.36 2.23-3.48 4.71c.08-1.86 1.42-2.9 3.24-3.39 2-.55 6.35-.16 9.16.24 3.39.48 11.92 2 14.05 2.43l68.71 13.48z"/><path id="_Path_3" data-name="&amp;lt;Path&amp;gt;" class="cls-3" d="M76.49 143.79l-28.9 10.08c-8.39 2.93-12.19.58-11.84-3.77-.3 2.22-.3 4.2 1 5.46 1.63 1.55 4.44 2.51 11.44.07L80 144.53z"/><path id="_Path_4" data-name="&amp;lt;Path&amp;gt;" class="cls-3" d="M47 152.12c-4.05 1.42-7.28 1.58-8.64.45a2.82 2.82 0 0 1-.68-2.77c.3-1.89 1.47-3.46 3.51-5.68l5.9-6.43L73 143.06z"/><path id="_Path_5" data-name="&amp;lt;Path&amp;gt;" class="cls-3" d="M30.75 91.43c-3.63-4-4.15-5.39-3.81-6.54a2.28 2.28 0 0 1 1.79-1.37c1.33-.37 4.71-.24 8.42.29 3.3.47 11.79 2 14 2.41l64.24 12.6-66.22 13z"/><path class="cls-2" d="M221.53 80.41c-2.58-.8-7.23-.42-9.17-.17-3.5.44-11.91 1.9-14.17 2.34l-78 15.31L51.46 84.4C49.33 84 40.8 82.46 37.41 82c-2.81-.4-7.12-.79-9.16-.24-1.82.49-3.16 1.53-3.24 3.39s.74 3.54 4.36 7.55L47 112.24l-2.27.44c-6.5 1.28-10.24 5.58-10.27 11.81a12.06 12.06 0 0 0 3.1 8.37 15.81 15.81 0 0 0 7.45 4.3l-5.21 5.68c-1.9 2.07-3.39 3.9-3.89 6.22v.07c-.05.32-.1.64-.14 1-.35 4.34 3.45 6.7 11.84 3.77l28.89-10.08 121.57 25.28c7.6 1.73 12.11 1.17 14.44-1.29 1.84-1.95 2.22-4.37 1.23-7.15-.1-.27-.3-.77-.6-1.44a6.71 6.71 0 0 1-.89 6.73c-2.09 2.31-5 3.34-13.8 1.33 0 0-141.84-29.5-151.15-31.42-7.63-1.57-11-5.88-11-11.32 0-5.27 3-8.87 8.77-10L198.54 84.4c2.13-.42 10.66-1.95 14.05-2.43 2.81-.4 7.12-.79 9.16-.24 1.82.49 3.16 1.53 3.24 3.39-.11-2.48-.99-3.94-3.46-4.71zM47 152.12c-4.05 1.42-7.28 1.58-8.64.45a2.82 2.82 0 0 1-.68-2.77c.3-1.89 1.47-3.46 3.51-5.68l5.9-6.43L73 143.06zM30.75 91.43c-3.63-4-4.15-5.39-3.81-6.54a2.28 2.28 0 0 1 1.79-1.37c1.33-.37 4.71-.24 8.42.29 3.3.47 11.79 2 14 2.41l64.24 12.6-66.22 13z"/><path class="cls-4" d="M194.78 128.78c-3-5.61 0-10.22 3.76-14.36l20.71-23c3.63-4 4.15-5.39 3.81-6.54a2.28 2.28 0 0 0-1.79-1.37c-1.33-.37-4.71-.24-8.42.29-3.3.47-11.79 2-14 2.41l-153.4 30.13c-4.8.94-7.24 3.69-7.26 8.18 0 6.22 5.14 8.59 9.49 9.49 9.2 1.9 149.73 31.13 151.15 31.42 8.66 2 10.62.76 12-.77 1-1.09 1.36-3.39.15-5.65zm17.87 29.36l.07.13.4.91a6.71 6.71 0 0 1-.89 6.73c-2.09 2.31-5 3.34-13.8 1.33 0 0-141.84-29.5-151.15-31.42-7.63-1.57-11-5.88-11-11.32 0-5.27 3-8.87 8.77-10l153.49-30.1c2.13-.42 10.66-1.95 14.05-2.43 2.81-.4 7.12-.79 9.16-.24 1.82.49 3.16 1.53 3.24 3.39s-.74 3.54-4.36 7.55l-20.71 23c-4 4.43-5.8 8-3.5 12.24z"/><path class="cls-4" d="M166.67 142.84h-9.33l5.52-34.84h9.33zM121.3 107.91h9.06l12.55 21.32h.2l3.27-21.32h9.06l-5.52 34.86h-9.06l-12.27-21.36h-.18l-3.57 21.36h-9.06zM65.75 115.78a9.41 9.41 0 0 0-5.91-1.92c-2 0-3.61 1-3.9 2.66-.45 2.52 2 3.42 3.79 4.2a29.77 29.77 0 0 1 4 2c4 2.39 6.37 6.75 4.72 12.51-1.23 4.3-5.15 8.74-14.84 8.74a20.64 20.64 0 0 1-13.07-4.36l4.94-7.2a13 13 0 0 0 8.52 3.9c2.36 0 4.78-.66 5.29-2.91.62-2.74-2.65-3.77-5.12-4.83-5.69-2.43-8.79-6.47-7.59-12.41 1.09-5.39 6.21-9.37 13.59-9.38a21.38 21.38 0 0 1 9.7 2.22s-3.87 7-4.12 6.78zM112.76 125.37C111 136.92 101.61 144 90.36 144c-11.91 0-17.71-8.9-16.5-18.59 1.28-10.23 10.49-18.58 22.39-18.58 12.52-.04 17.86 9.74 16.51 18.54zm-29.29 0c-1.09 6 2.58 10.2 8.22 10.18 5.34 0 10.25-3.79 11.45-10.18 1-5.18-1.84-10.11-8.34-10.14-6.12-.03-10.37 4.87-11.33 10.14zM203.62 118.82a9.66 9.66 0 0 0-7.56-3.14c-5.19 0-10.1 4.43-11 9.79s1.89 9.61 8 9.61a13.11 13.11 0 0 0 8.4-3l-1.69 10.54a30.67 30.67 0 0 1-8.3 1.35c-13.21 0-17.6-9.87-16.35-18.52a21.35 21.35 0 0 1 21.43-18.65 25.86 25.86 0 0 1 8.66 1.61z"/><path class="cls-5" d="M168.7 141.05h-9.33l5.52-34.86h9.33z"/><path class="cls-6" d="M168.88 141.26h-9.76v-.24l5.55-35h9.76v.24zm-9.27-.42h8.91L174 106.4h-8.91z"/><path class="cls-5" d="M123.34 106.13h9.06l12.55 21.32h.2l3.27-21.32h9.06L152 141h-9.06l-12.27-21.36h-.18L126.87 141h-9.06z"/><path class="cls-6" d="M152.13 141.2h-9.36L130.59 120l-3.54 21.21h-9.48l5.59-35.28h9.36l.06.1L145 127.09l3.25-21.18h9.49v.24zm-9.12-.42h8.76l5.46-34.44h-8.63l-3.27 21.32h-.5l-.06-.1-12.49-21.21h-8.76l-5.46 34.44h8.64l3.57-21.36h.48z"/><path class="cls-5" d="M68.42 114.54a9.2 9.2 0 0 0-6.54-2.47c-2 0-3.61 1-3.9 2.66-.45 2.52 2 3.42 3.79 4.2a29.76 29.76 0 0 1 4 2c4 2.39 6.37 6.75 4.72 12.52-1.23 4.3-5.15 8.74-14.84 8.74a20.83 20.83 0 0 1-12.34-3.72l4.94-7.2a12 12 0 0 0 7.85 3.27c2.36 0 4.78-.66 5.29-2.91.62-2.74-2.65-3.77-5.12-4.83-5.69-2.43-8.79-6.47-7.59-12.41C49.73 109 54.84 105 62.22 105a20.61 20.61 0 0 1 10.7 2.84z"/><path class="cls-6" d="M55.61 142.37a21.18 21.18 0 0 1-12.47-3.76l-.14-.12 5.2-7.57.18.19a11.78 11.78 0 0 0 7.62 3.2c3.69 0 4.8-1.49 5.09-2.75.52-2.3-1.91-3.31-4.27-4.29l-.73-.3c-6.19-2.64-8.85-7-7.71-12.65a11 11 0 0 1 4.52-6.84 15.84 15.84 0 0 1 9.28-2.71 20.59 20.59 0 0 1 10.82 2.9l.18.12-4.76 7.09-.18-.17a9 9 0 0 0-6.39-2.41c-1.95 0-3.44 1-3.7 2.49-.4 2.25 1.64 3.11 3.43 3.87l.23.1a30 30 0 0 1 4 2c4.53 2.71 6.33 7.48 4.81 12.75a11.12 11.12 0 0 1-4.33 6.1c-2.62 1.82-6.22 2.76-10.68 2.76zm-12.05-4A21 21 0 0 0 55.6 142c4.55 0 12.49-1.12 14.64-8.59 1.48-5.15-.21-9.63-4.63-12.28a29.65 29.65 0 0 0-3.94-2l-.23-.1c-1.84-.78-4.14-1.76-3.68-4.33.3-1.69 2-2.83 4.11-2.83a9.48 9.48 0 0 1 6.49 2.36l4.25-6.32a20.39 20.39 0 0 0-10.4-2.7c-7 0-12.25 3.62-13.38 9.21s1.4 9.59 7.47 12.18l.72.3c2.4 1 5.13 2.12 4.52 4.77-.45 2-2.4 3.07-5.5 3.07a12.37 12.37 0 0 1-7.81-3.15z"/><path class="cls-5" d="M114.79 123.59c-1.78 11.54-11.15 18.59-22.4 18.59-11.91 0-17.71-8.9-16.5-18.59C77.18 113.35 86.38 105 98.28 105c12.52 0 17.87 9.79 16.51 18.59zm-29.54 0c-1.09 6 2.58 10.2 8.22 10.18 5.34 0 10.25-3.79 11.45-10.18 1-5.18-1.84-10.11-8.34-10.14-6.12-.03-10.37 4.86-11.33 10.14z"/><path class="cls-6" d="M92.39 142.39c-5.42 0-9.89-1.82-12.94-5.28a17.16 17.16 0 0 1-3.77-13.55A20.87 20.87 0 0 1 83 110.3a23.58 23.58 0 0 1 15.31-5.51c5.52 0 10.05 1.89 13.12 5.47a16.55 16.55 0 0 1 3.57 13.36c-1.73 11.22-10.81 18.77-22.6 18.77zm5.9-37.17a23.16 23.16 0 0 0-15 5.41 20.46 20.46 0 0 0-7.14 13 16.74 16.74 0 0 0 3.66 13.22c3 3.36 7.33 5.13 12.62 5.13 11.58 0 20.49-7.4 22.19-18.41h.21-.21a16.14 16.14 0 0 0-3.49-13c-3.02-3.52-7.45-5.36-12.84-5.36zM93.43 134a8.54 8.54 0 0 1-6.72-2.87 9 9 0 0 1-1.71-7.58c.94-5.13 5.18-10.31 11.47-10.31h.06a8.64 8.64 0 0 1 6.9 2.91 9.05 9.05 0 0 1 1.65 7.47C104 129.8 99.29 134 93.47 134zm-8-10.36a8.61 8.61 0 0 0 1.57 7.2 8.13 8.13 0 0 0 6.4 2.73c5.61 0 10.13-4 11.24-10a8.64 8.64 0 0 0-1.56-7.13 8.24 8.24 0 0 0-6.58-2.76h.02c-6.07 0-10.16 5-11.06 10z"/><path class="cls-5" d="M205.66 117a9.66 9.66 0 0 0-7.56-3.14c-5.19 0-10.1 4.43-11 9.79s1.89 9.61 8 9.61a13.1 13.1 0 0 0 8.4-3l-1.69 10.54a30.66 30.66 0 0 1-8.3 1.35c-13.21 0-17.6-9.87-16.35-18.52A21.35 21.35 0 0 1 198.63 105a25.86 25.86 0 0 1 8.66 1.61z"/><path class="cls-6" d="M193.54 142.37c-5.58 0-10.08-1.8-13-5.19a16.91 16.91 0 0 1-3.54-13.56 22.2 22.2 0 0 1 7.09-13.41 21.47 21.47 0 0 1 14.55-5.43 25.92 25.92 0 0 1 8.73 1.62l.16.06-1.74 11-.29-.33a9.49 9.49 0 0 0-7.39-3.07c-5.08 0-9.91 4.32-10.77 9.62a8.35 8.35 0 0 0 1.52 6.87 8 8 0 0 0 6.3 2.5 12.87 12.87 0 0 0 8.26-3l.43-.36-1.8 11.31h-.13l-.82.21a27.87 27.87 0 0 1-7.54 1.14zm5.1-37.17a21.06 21.06 0 0 0-14.27 5.32 21.78 21.78 0 0 0-6.95 13.15 16.49 16.49 0 0 0 3.42 13.23c2.86 3.3 7.26 5 12.71 5a27.51 27.51 0 0 0 7.43-1.13l.69-.18 1.58-9.87a13.3 13.3 0 0 1-8.1 2.73 8.35 8.35 0 0 1-6.62-2.64 8.76 8.76 0 0 1-1.61-7.21c.89-5.49 5.9-10 11.18-10a10 10 0 0 1 7.41 2.89l1.55-9.84a25.34 25.34 0 0 0-8.42-1.45z"/></svg>