<svg id="Layer_1" xmlns="http://www.w3.org/2000/svg" viewBox="0 0 250 250"><style>.st0{fill:#68bc49;fill-opacity:0}.st1{fill:#ffc20d}.st2{fill:#009132}</style><title>subway-logo</title><path class="st0" d="M0 0h250v250H0V0z"/><path class="st1" d="M49.3 132.6c0 5.6-3.2 8.9-8.3 9.9-1.4.3-3.7.3-5.3.3l-12.3-.1v4.7l-10.8-8.9 10.8-9v4.7l13.8.1c1.3 0 1.9-.7 1.9-1.5 0-1.4-1.4-1.9-5.2-3.7-6.3-3-11.2-5.1-11.2-12 0-5.3 3.8-9 9.5-9.8 1.1-.1 3.2-.2 4.6-.2 2.8 0 10.7.2 10.7.2v8.6l-13-.2c-1.1 0-1.7.7-1.7 1.5 0 1.1.9 1.6 4.6 3.3 7.6 3.6 11.9 5.5 11.9 12.1zm20.3-.7c0 1.6-1.4 2.9-4 2.9-2.7 0-4-1.3-4-2.9v-24.6H51.2v25.5c0 5.6 4.7 11 14.4 11 9.3 0 14.4-5.3 14.4-11v-25.5H69.6v24.6zm43 .2c0 7.1-4.7 10.9-11.8 10.9H83.3v-35.7h16.9c7.5 0 11.4 4.2 11.4 9.8 0 2.8-1.3 5.3-4 7 3.1 1.7 5 4.2 5 8zm-18.9-10.7h4.8c1.8 0 2.7-1.3 2.7-3.2 0-1.9-.9-3.2-2.7-3.2h-4.8v6.4zm8.3 10.2c0-2.1-1-3.4-2.9-3.4h-5.3v6.8H99c2 0 3-1.4 3-3.4z"/><path class="st2" d="M147.6 107.3H158v25.1c0 5.8-4.1 11.1-12.8 11.1-3.7 0-6.6-1.1-8.7-2.8-2.1 1.7-4.9 2.8-8.4 2.8-9.3 0-13.1-5.3-13.1-11.1v-25.1h10.4v24.9c0 1 .6 2.3 2.9 2.3 2.4 0 3-1.2 3-2.3v-24.9h10.4v24.9c0 1 .6 2.3 2.9 2.3 2.4 0 3-1.2 3-2.3v-24.9zm55.2 14v-14h-10.3v15c0 5 3.4 8.8 9.1 10.3v10.3h10.6v-10.3c5.8-1.6 9-5.3 9-10.3v-5.5c0-.5.3-.8.9-.8h4.6v4.5l10.8-9-10.8-8.9v4.5h-7.2c-6.1 0-8.7 3.5-8.7 8.6v5.6c0 1.3-.9 2.9-4 2.9s-4-1.6-4-2.9zm-12.9-3.9v25.5h-10.4v-10.3h-7.9v10.3h-10.4v-25.5c0-6.4 5.2-11.2 14.3-11.2 9.1 0 14.4 4.8 14.4 11.2zm-10.4 7V118c0-1.7-1.2-2.9-3.9-2.9-2.8 0-3.9 1.2-3.9 2.9v6.4h7.8zM218.7 140.7c0-.3-.3-.5-.6-.5h-.9v1.9h.4v-.7h.4c.2 0 .4.1.4.3v.4h.4v-.5c0-.2-.1-.3-.3-.4.1-.1.2-.2.2-.5zm-.7.4h-.5v-.6h.5c.2 0 .3.1.3.3 0 .2-.1.3-.3.3zm-.1-1.8c-1 0-1.9.9-1.9 1.9 0 1 .9 1.9 1.9 1.9 1 0 1.9-.9 1.9-1.9 0-1.1-.9-1.9-1.9-1.9zm0 3.5c-.9 0-1.6-.7-1.6-1.6 0-.9.7-1.6 1.6-1.6.9 0 1.6.7 1.6 1.6-.1.9-.8 1.6-1.6 1.6z"/></svg>