<svg id="Layer_1" xmlns="http://www.w3.org/2000/svg" viewBox="0 0 680 135.6"><style>.st0{fill:#ffc20d}.st1{fill:#009132}</style><path class="st0" d="M111.1 90.8c0 16.8-9.5 26.8-25.1 30.1-4.1.8-11.3.9-16.1.9l-37.2-.3v14.1L0 108.6l32.7-27.1v14.2l41.8.3c4 .1 5.6-2.2 5.6-4.6 0-4.3-4.1-5.7-15.9-11.3-18.9-9-33.8-15.5-33.8-36.2 0-16.1 11.6-27.3 28.7-29.5 3.5-.4 9.8-.6 14-.5 8.6.1 32.4.5 32.4.5v25.9l-39.2-.6c-3.4-.1-5.1 2.1-5.1 4.4 0 3.3 2.7 4.7 13.8 9.9 23.3 11 36.1 16.8 36.1 36.8zm61.3-2.1c0 4.8-4.1 8.7-12 8.7-8.1 0-12-3.9-12-8.7V14.2h-31.6v77c0 17.1 14.1 33.1 43.6 33.1 28 0 43.6-15.9 43.6-33.1v-77h-31.6v74.5zm130 .5c0 21.3-14.3 32.8-35.5 32.8H214V14.2h51.1c22.8 0 34.5 12.8 34.5 29.5 0 8.6-4 15.9-12 21.2 9.2 5.2 14.8 13 14.8 24.3zM245.3 57h14.6c5.5 0 8.1-4 8.1-9.7 0-5.9-2.6-9.6-8.1-9.6h-14.6V57zm25.1 30.7c0-6.4-3-10.2-8.9-10.2h-16.2V98h16.2c6 0 8.9-4.1 8.9-10.3z"/><path class="st1" d="M408.2 14.2h31.5v76c0 17.6-12.5 33.6-38.8 33.6-11.2 0-20-3.4-26.4-8.4-6.3 5-14.7 8.4-25.3 8.4-28.2 0-39.7-16-39.7-33.6v-76H341v75.3c0 3.1 1.7 6.9 8.8 6.9 7.2 0 9-3.7 9-6.9V14.2h31.5v75.3c0 3.2 1.7 6.9 8.9 6.9s8.9-3.6 8.9-6.9V14.2zm167 42.4V14.2H544v45.5c0 15 10.3 26.5 27.6 31.1V122h31.9V90.8c17.5-4.8 27.3-16.2 27.3-31.1V43c0-1.6.8-2.5 2.6-2.5h14v13.6L680 27 647.3 0v13.6h-21.7c-18.4 0-26.1 10.6-26.1 26v17c0 4.1-2.8 8.8-12.1 8.8-9.5 0-12.2-4.8-12.2-8.8zm-39-11.7v77h-31.4V90.8H481V122h-31.4V45c0-19.3 15.9-33.9 43.3-33.9 27.1 0 43.3 14.4 43.3 33.8zM504.8 66V46.8c0-5.1-3.6-8.8-11.9-8.8-8.4 0-11.9 3.7-11.9 8.8V66h23.8zM623.2 115.4c0-1-.8-1.5-1.8-1.5h-2.8v5.6h1.1v-2.1h1.3c.7 0 1.1.3 1.1 1v1.1h1.1V118c0-.6-.4-1-.9-1.1.6-.4.9-.9.9-1.5zm-2.1 1h-1.5v-1.7h1.5c.5 0 .9.3.9.8 0 .6-.4.9-.9.9zm-.4-5.4c-3.2 0-5.8 2.6-5.8 5.8 0 3.2 2.6 5.8 5.8 5.8 3.2 0 5.8-2.6 5.8-5.8-.1-3.2-2.7-5.8-5.8-5.8zm0 10.5c-2.6 0-4.8-2.1-4.8-4.8 0-2.6 2.1-4.7 4.8-4.7 2.6 0 4.7 2.1 4.7 4.7s-2.1 4.8-4.7 4.8z"/></svg>