<svg id="Layer_1" data-name="Layer 1" xmlns="http://www.w3.org/2000/svg" viewBox="0 0 250 250"><defs><style>.cls-1{fill:#68bc49;opacity:0}.cls-2{fill:#1d355b;fill-rule:evenodd}</style></defs><title>supercuts-logo</title><path class="cls-1" d="M0 0h250v250H0z"/><path class="cls-2" d="M70.61 109.86l-3.08 17.49C66 136 63 140.48 54.3 140.5c-6.62 0-10.2-4.53-8.67-13.16l3.08-17.49h8.6l-2.9 16.47c-.41 2.31-.7 5.82 1.59 5.82s2.71-3.51 3.12-5.82L62 109.86h8.6zM82.71 109.86H71.83l-5.21 29.57h8.28l1.57-8.9h4.39c4.8 0 8.47-3.76 9.54-9.8 1.29-7.35-2.17-10.87-7.69-10.87zm-.47 10.51c-.42 2.39-2.11 2.71-3.61 2.71h-.85l.91-5.14h.81c1.41-.01 3.15.11 2.74 2.42zM93.54 109.86h14.92l-1.43 8.07h-6.02l-.49 2.83h5.39l-1.35 7.68h-5.4l-.51 2.9h6.27l-1.42 8.08H88.32l5.22-29.56zM128.57 120.13c1.31-7.45-2.71-10.27-8-10.27h-10.42l-5.21 29.57h8.41l1.67-9.49h.16l2.09 9.49h9.91l-3.45-9.61a5.38 5.38 0 0 0-1.13-1.82v-.24c3.47-1.28 5.18-3.16 5.97-7.63zm-8.47.35c-.39 2.2-1.85 2.47-3.26 2.47h-.6l.89-5h.66c1.48-.02 2.71.26 2.31 2.53zM153.82 115.5a10.08 10.08 0 0 0-7.29-2.9c-6.63 0-12.66 5.53-13.81 12.08s2.9 12 9.49 12a14 14 0 0 0 8.42-3.06l-.78 4.38a18.14 18.14 0 0 1-8.13 2.08c-8.43 0-14.23-6.71-12.72-15.25a19.32 19.32 0 0 1 18.47-15.57 12.5 12.5 0 0 1 7.1 2l-.75 4.27zM161.24 109.86l-3.08 17.45c-.85 4.82-.19 9.29 5.5 9.29s7.92-4.47 8.78-9.29l3.08-17.45h3.69l-3.3 18.7c-1.15 6.51-6.06 11.49-12.85 11.49s-9.94-5-8.8-11.49l3.3-18.7h3.69zM186.26 139.42h-3.69l4.62-26.19h-7.02l.59-3.37h17.73l-.6 3.37h-7.01l-4.62 26.19zM212.75 115.46a4.11 4.11 0 0 0-4.25-2.78c-2.35 0-5.22 1.61-5.68 4.2-.41 2.31 1.65 3.53 3.37 4.24l2 .82c3.91 1.65 6.63 4 5.76 8.9a11.31 11.31 0 0 1-11.11 9.16c-4.78 0-7.89-3.53-7.68-8.27L199 131a4.53 4.53 0 0 0 4.74 5.61 6.92 6.92 0 0 0 6.47-5.76c.56-3.18-1.75-4.55-4.11-5.61l-1.89-.86c-3.12-1.45-5.84-3.37-5.11-7.49.84-4.78 5.58-7.65 10.05-7.65a6.84 6.84 0 0 1 6.85 4.46l-3.25 1.76zM45.46 111.48l-1.35 7.35a12.15 12.15 0 0 0-4.66-1.53c-2 0-2.54 1.82-.49 3.61 1.78 1.56 5.88 4.11 5.39 10.29-.5 6.35-6.37 9.68-11.15 9.56a18.54 18.54 0 0 1-8.2-2.56l1.47-8s3.55 2.88 6.25 2.45 2.82-2.82 1.47-3.92-6.13-4-6.13-9.37 4.6-9.93 11.34-9.93c0 0 3.74.18 6.07 2zM223.47 111.64a.9.9 0 0 0-1.12-.86H221V114h.47v-1.5h.6l.83 1.5h.54l-.82-1.5a.83.83 0 0 0 .85-.86zm-1.51.42h-.5v-.81h.81c.39 0 .74 0 .74.44s-.61.37-1.01.37z"/><path class="cls-2" d="M222.1 109.5a2.89 2.89 0 1 0 2.9 2.89 2.87 2.87 0 0 0-2.9-2.89zm0 5.31a2.42 2.42 0 1 1 2.43-2.42 2.42 2.42 0 0 1-2.43 2.42z"/></svg>