<svg id="Layer_1" data-name="Layer 1" xmlns="http://www.w3.org/2000/svg" viewBox="0 0 250 250"><defs><style>.cls-1{fill:#68bc49;opacity:0;}.cls-2{fill:#0033a0;}.cls-3{fill:#fff;}.cls-4{fill:#e13eaf;}</style></defs><title>baskin-robbins-logo</title><rect class="cls-1" width="250" height="250"/><path class="cls-2" d="M125,25A100,100,0,1,0,225,125,100.11,100.11,0,0,0,125,25Z"/><circle class="cls-3" cx="125" cy="125" r="90.27"/><path class="cls-4" d="M125,219.87A94.87,94.87,0,1,1,219.86,125,95,95,0,0,1,125,219.87Zm0-180.53A85.67,85.67,0,1,0,210.66,125,85.77,85.77,0,0,0,125,39.33Z"/><polygon class="cls-4" points="150.96 61.97 134.04 60.8 132.65 135.48 142.94 136.43 150.96 61.97"/><polygon class="cls-2" points="88.45 64.48 69.38 67.78 83.4 135.08 91.21 134.71 88.45 64.48"/><path class="cls-4" d="M90.86,61.52s25.78-3,32.88,13.89S113,99.08,113,99.08s19.29,3.69,13.69,21.05S94,135.73,94,135.73l0.19-5.94s14.65,1.45,16.95-10.48C113.49,107,96,106.9,96,106.9L95.39,98s13.19-.54,13.66-11.13-17.1-9.27-17.1-9.27Z"/><path class="cls-2" d="M152.83,64.56s25.89,0.08,27.68,19.83-19.26,26.2-19.26,26.2l9,23-8.13,1.56-14.07-21.92,1.05-8.37s12.14-2.68,14-10c2.91-11.72-11.62-14-11.62-14Z"/><path class="cls-2" d="M83.15,147.92a8.81,8.81,0,0,1,4-1.53c4.86-.61,9.27,2.54,9.87,7.06s-2.85,8.69-7.7,9.31a8.94,8.94,0,0,1-4.29-.48l0.26,1.6-4.63.58-3-22.62,4.62-.58Zm4.59,2.76a4.11,4.11,0,0,0-3.64,4.4,4.15,4.15,0,0,0,4.67,3.36,4.11,4.11,0,0,0,3.64-4.4,4.18,4.18,0,0,0-4.67-3.36"/><path class="cls-2" d="M111.91,147.82l4.66,0.23-1.32,17.73-4.66-.22,0.2-1.62a8.93,8.93,0,0,1-4.24.81,8.4,8.4,0,0,1-8.3-8.67,9,9,0,0,1,13.45-6.59Zm-9,8.47a4.07,4.07,0,0,0,3.94,4.1,4.19,4.19,0,0,0,4.43-3.71,4.07,4.07,0,0,0-3.94-4.1,4.23,4.23,0,0,0-4.43,3.71"/><path class="cls-2" d="M127.34,147.24l-0.69.17c-2.24.54-3.59,2.24-3,3.64l2.94,6.47c1.4,3.08-1.4,6.53-6.25,7.7l-0.68.17-1.34-2.93,0.69-.17c2.24-.54,3.6-2.22,3-3.65l-2.94-6.46c-1.4-3.08,1.4-6.52,6.24-7.69l0.69-.17Z"/><polygon class="cls-2" points="137.71 155.28 128.62 163.53 130.15 138.78 134.79 139.08 133.78 152.83 141.95 144.53 145.32 147.48 140.93 151.98 146.06 158.93 142.31 161.45 137.71 155.28"/><path class="cls-2" d="M153.3,143.84a2.8,2.8,0,0,1-5.58.19,2.66,2.66,0,0,1,2.7-2.7,2.71,2.71,0,0,1,2.89,2.51M153,147.77L153.49,163l-4.65.15-0.54-15.19Z"/><polygon class="cls-2" points="173.15 148.03 172.11 166.43 161.33 154.88 161.13 163.06 156.46 163 157.33 144.8 168.29 156.15 168.49 147.96 173.15 148.03"/><path class="cls-2" d="M78.89,168.52l5.17-.39,0.23,1.93a9.76,9.76,0,0,1,4.55-1.48l0.53,0,0.4,4.79-0.53,0A4.54,4.54,0,0,0,85,178.06l0.72,9.33-5.17.39Z"/><path class="cls-2" d="M96.6,172.18a7.42,7.42,0,1,1-7.83,7.48,7.68,7.68,0,0,1,7.83-7.48m0.12,10.9a3.51,3.51,0,1,0-3.8-3.46,3.7,3.7,0,0,0,3.8,3.46"/><path class="cls-2" d="M110.59,174.36a7.93,7.93,0,0,1,3.79-.82,7.63,7.63,0,0,1,7.73,7.58,7.74,7.74,0,0,1-8.16,7.21,7.87,7.87,0,0,1-3.74-1l-0.07,1.37-4.19-.1,0.59-20.46,4.19,0.1Zm3.67,3.06a3.75,3.75,0,0,0-3.86,3.42,3.68,3.68,0,0,0,3.66,3.59,3.52,3.52,0,1,0,.2-7"/><path class="cls-2" d="M127.45,170.93a7.81,7.81,0,0,1,3.72-1,7.42,7.42,0,1,1,.55,14.78,7.88,7.88,0,0,1-3.8-.78l0.07,1.37-4.18.14L123.06,165l4.18-.14Zm3.87,2.84a3.52,3.52,0,1,0,3.89,3.38,3.76,3.76,0,0,0-3.89-3.38"/><path class="cls-2" d="M146.22,166.9a2.48,2.48,0,0,1-2.64,2.22,2.39,2.39,0,0,1-2.37-2.46,2.51,2.51,0,0,1,5,.24m-0.63,3.48L144.82,184l-4.18-.21,0.76-13.61Z"/><polygon class="cls-2" points="163.34 170.09 162.89 187.11 152.84 176.23 152.79 183.57 148.61 183.51 148.74 165.45 159.1 177.38 159.16 170.03 163.34 170.09"/><path class="cls-2" d="M173.71,171l-0.69.13c-2.2.41-3.53,2.07-2.91,3.56l2.87,6.82c1.37,3.25-1.4,6.63-6.16,7.52l-0.68.13-1.31-3.1,0.69-.12c2.2-.42,3.54-2.05,2.91-3.56l-2.86-6.82c-1.36-3.26,1.4-6.6,6.16-7.51l0.68-.13Z"/><path class="cls-2" d="M175,174.79a3.43,3.43,0,0,1,6.86,0A3.43,3.43,0,0,1,175,174.79Zm6.24,0a2.7,2.7,0,0,0-2.83-2.82,2.81,2.81,0,0,0,0,5.62A2.7,2.7,0,0,0,181.26,174.79Zm-1.3,1.83h-0.75l-0.61-.92a1,1,0,0,1-.22,0h-0.47v0.91h-0.69v-3.71h1.14a1.41,1.41,0,0,1,1.6,1.41,1.31,1.31,0,0,1-.74,1.21Zm-1.6-1.46a0.77,0.77,0,0,0,.91-0.83,0.79,0.79,0,0,0-.91-0.85h-0.45v1.68h0.45Z"/></svg>