<?xml version="1.0" encoding="utf-8"?>
<!-- Generator: Adobe Illustrator 19.2.1, SVG Export Plug-In . SVG Version: 6.00 Build 0)  -->
<svg version="1.1" id="Layer_1" xmlns="http://www.w3.org/2000/svg" xmlns:xlink="http://www.w3.org/1999/xlink" x="0px" y="0px"
	 viewBox="0 0 250 250" style="enable-background:new 0 0 250 250;" xml:space="preserve">
<style type="text/css">
	.st0{fill:#68BC49;fill-opacity:0;}
	.st1{fill:#0033A0;}
	.st2{fill:#FFFFFF;}
	.st3{fill:#E13EAF;}
</style>
<title>baskin-robbins-logo</title>
<rect class="st0" width="250" height="250"/>
<g>
	<path class="st1" d="M125,75c-27.6,0-50,22.4-50,50s22.4,50,50,50s50-22.4,50-50C175,97.4,152.6,75,125,75z"/>
	<circle class="st2" cx="125" cy="125" r="45.1"/>
	<path class="st3" d="M125,172.4c-26.2,0-47.4-21.2-47.4-47.4S98.8,77.6,125,77.6s47.4,21.2,47.4,47.4c0,0,0,0,0,0
		C172.4,151.2,151.2,172.4,125,172.4z M125,82.2c-23.7,0-42.8,19.2-42.8,42.8s19.2,42.8,42.8,42.8s42.8-19.2,42.8-42.8c0,0,0,0,0,0
		C167.8,101.4,148.6,82.2,125,82.2L125,82.2z"/>
	<polygon class="st3" points="138,93.5 129.5,92.9 128.8,130.2 134,130.7 	"/>
	<polygon class="st1" points="106.7,94.7 97.2,96.4 104.2,130 108.1,129.9 	"/>
	<path class="st3" d="M107.9,93.3c0,0,12.9-1.5,16.4,6.9S119,112,119,112s9.6,1.8,6.8,10.5s-16.3,7.8-16.3,7.8l0.1-3
		c0,0,7.3,0.7,8.5-5.2c1.2-6.2-7.6-6.2-7.6-6.2l-0.3-4.4c0,0,6.6-0.3,6.8-5.6s-8.5-4.6-8.5-4.6L107.9,93.3z"/>
	<path class="st1" d="M138.9,94.8c0,0,12.9,0,13.8,9.9s-9.6,13.1-9.6,13.1l4.5,11.5l-4.1,0.8l-7-11l0.5-4.2c0,0,6.1-1.3,7-5
		c1.5-5.9-5.8-7-5.8-7L138.9,94.8z"/>
	<path class="st1" d="M104.1,136.5c0.6-0.4,1.3-0.7,2-0.8c2.4-0.3,4.6,1.3,4.9,3.5c0.3,2.3-1.4,4.3-3.8,4.7c-0.7,0.1-1.5,0-2.1-0.2
		l0.1,0.8l-2.3,0.3l-1.5-11.3l2.3-0.3L104.1,136.5z M106.4,137.8c-1.1,0.1-1.9,1.1-1.8,2.2c0.2,1.1,1.2,1.8,2.3,1.7
		c1.1-0.1,1.9-1.1,1.8-2.2C108.5,138.4,107.5,137.7,106.4,137.8"/>
	<path class="st1" d="M118.5,136.4l2.3,0.1l-0.7,8.9l-2.3-0.1l0.1-0.8c-0.7,0.3-1.4,0.4-2.1,0.4c-2.3,0-4.2-1.9-4.2-4.2
		c0,0,0-0.1,0-0.1c0.3-2.5,2.6-4.2,5.1-3.9c0.6,0.1,1.2,0.3,1.7,0.6L118.5,136.4z M114,140.6c0,1.1,0.9,2,2,2.1
		c1.1,0.1,2.1-0.7,2.2-1.9c0-1.1-0.9-2-2-2C115.1,138.7,114.1,139.5,114,140.6"/>
	<path class="st1" d="M126.2,136.1l-0.3,0.1c-1.1,0.3-1.8,1.1-1.5,1.8l1.5,3.2c0.7,1.5-0.7,3.3-3.1,3.8l-0.3,0.1l-0.7-1.5l0.3-0.1
		c1.1-0.3,1.8-1.1,1.5-1.8l-1.5-3.2c-0.7-1.5,0.7-3.3,3.1-3.8l0.3-0.1L126.2,136.1z"/>
	<polygon class="st1" points="131.4,140.1 126.8,144.3 127.6,131.9 129.9,132 129.4,138.9 133.5,134.8 135.2,136.2 133,138.5 
		135.5,142 133.7,143.2 	"/>
	<path class="st1" d="M139.1,134.4c0,0.8-0.7,1.4-1.5,1.3c-0.7,0-1.3-0.6-1.3-1.2c0-0.7,0.6-1.3,1.3-1.3c0,0,0,0,0,0
		C138.5,133.1,139.1,133.7,139.1,134.4 M139,136.4l0.2,7.6l-2.3,0.1l-0.3-7.6L139,136.4z"/>
	<polygon class="st1" points="149.1,136.5 148.6,145.7 143.2,139.9 143.1,144 140.7,144 141.2,134.9 146.6,140.6 146.7,136.5 	"/>
	<path class="st1" d="M101.9,146.8l2.6-0.2l0.1,1c0.7-0.4,1.5-0.7,2.3-0.7h0.3l0.2,2.4h-0.3c-1.2,0.1-2.2,1.1-2.1,2.3l0.4,4.7
		l-2.6,0.2L101.9,146.8z"/>
	<path class="st1" d="M110.8,148.6c2,0.1,3.6,1.9,3.5,3.9c-0.1,2-1.9,3.6-3.9,3.5c-2-0.1-3.5-1.7-3.5-3.7
		C106.9,150.2,108.7,148.5,110.8,148.6 M110.9,154c1-0.1,1.7-0.9,1.6-1.9s-0.9-1.7-1.9-1.6c-0.9,0.1-1.6,0.8-1.6,1.8
		C109,153.3,109.9,154.1,110.9,154"/>
	<path class="st1" d="M117.8,149.7c0.6-0.3,1.2-0.4,1.9-0.4c2.1,0,3.8,1.7,3.9,3.8c0,0,0,0,0,0c-0.1,2.1-2,3.7-4.1,3.6
		c-0.7,0-1.3-0.2-1.9-0.5l0,0.7l-2.1-0.1l0.3-10.2l2.1,0.1L117.8,149.7z M119.6,151.2c-1,0-1.8,0.7-1.9,1.7c0,1,0.8,1.8,1.8,1.8
		c1,0.1,1.8-0.6,2-1.5c0.1-1-0.6-1.8-1.5-2C119.9,151.2,119.8,151.2,119.6,151.2"/>
	<path class="st1" d="M126.2,148c0.6-0.3,1.2-0.5,1.9-0.5c2-0.2,3.9,1.2,4.1,3.2s-1.2,3.9-3.2,4.1c-0.2,0-0.4,0-0.6,0
		c-0.7,0-1.3-0.1-1.9-0.4l0,0.7l-2.1,0.1L124,145l2.1-0.1L126.2,148z M128.2,149.4c-1,0.1-1.7,1-1.6,1.9c0.1,1,1,1.7,1.9,1.6
		c0.9-0.1,1.6-0.9,1.6-1.8C130,150.1,129.2,149.3,128.2,149.4"/>
	<path class="st1" d="M135.6,145.9c-0.1,0.7-0.7,1.2-1.3,1.1c-0.7,0-1.2-0.5-1.2-1.2c0,0,0,0,0,0c0.1-0.7,0.7-1.2,1.4-1.1
		C135.1,144.8,135.6,145.3,135.6,145.9 M135.3,147.7l-0.4,6.8l-2.1-0.1l0.4-6.8L135.3,147.7z"/>
	<polygon class="st1" points="144.2,147.5 143.9,156.1 138.9,150.6 138.9,154.3 136.8,154.3 136.9,145.2 142.1,151.2 142.1,147.5 	
		"/>
	<path class="st1" d="M149.4,148l-0.3,0.1c-1.1,0.2-1.8,1-1.5,1.8l1.4,3.4c0.7,1.6-0.7,3.3-3.1,3.8l-0.3,0.1l-0.7-1.6l0.3-0.1
		c1.1-0.2,1.8-1,1.5-1.8l-1.4-3.4c-0.7-1.6,0.7-3.3,3.1-3.8l0.3-0.1L149.4,148z"/>
	<path class="st1" d="M150,149.9c0-0.9,0.8-1.7,1.7-1.7s1.7,0.8,1.7,1.7l0,0c0,0.9-0.8,1.7-1.7,1.7C150.8,151.6,150,150.8,150,149.9
		z M153.1,149.9c0-0.7-0.5-1.4-1.3-1.4c0,0-0.1,0-0.1,0c-0.8,0-1.4,0.6-1.4,1.4c0,0.8,0.6,1.4,1.4,1.4c0.7,0,1.4-0.5,1.4-1.3
		C153.1,150,153.1,149.9,153.1,149.9L153.1,149.9z M152.5,150.8h-0.4l-0.3-0.5c0,0-0.1,0-0.1,0h-0.2v0.5h-0.3v-1.9h0.6
		c0.4-0.1,0.7,0.2,0.8,0.6c0,0,0,0.1,0,0.1c0,0.3-0.1,0.5-0.4,0.6L152.5,150.8z M151.7,150.1c0.2,0,0.4-0.1,0.5-0.3c0,0,0-0.1,0-0.1
		c0-0.2-0.1-0.4-0.4-0.4c0,0-0.1,0-0.1,0h-0.2v0.8H151.7L151.7,150.1z"/>
</g>
</svg>
