<?xml version="1.0" encoding="utf-8"?>
<!-- Generator: Adobe Illustrator 21.1.0, SVG Export Plug-In . SVG Version: 6.00 Build 0)  -->
<svg version="1.1" id="Layer_1" xmlns="http://www.w3.org/2000/svg" xmlns:xlink="http://www.w3.org/1999/xlink" x="0px" y="0px"
	 viewBox="0 0 990 260.2" style="enable-background:new 0 0 990 260.2;" xml:space="preserve">
<style type="text/css">
	.st0{fill:#FFFFFF;}
</style>
<g>
	<g>
		<g>
			<path class="st0" d="M205.6,116.5c0-8.9-1.3-17-4-24.3c-2.7-7.3-6.6-13.6-11.8-18.9c-5.1-5.3-11.4-9.4-18.8-12.4
				c-7.4-3-15.8-4.4-25.2-4.4h0c-9.4,0-17.8,1.5-25.2,4.4c-6.9,2.8-12.8,6.6-17.7,11.4c-4.9-4.8-10.8-8.6-17.7-11.4
				c-7.4-3-15.8-4.4-25.2-4.4c0,0,0,0,0,0c-9.4,0-17.8,1.5-25.2,4.4c-7.4,3-13.7,7.1-18.8,12.4C10.7,78.6,6.8,84.9,4,92.2
				c-2.7,7.3-4,15.4-4,24.3v30.7c0,0.1,0.1,0.2,0.2,0.2c-0.1,0-0.2,0.1-0.2,0.2V176c0,9.4,7.1,17.9,16.5,18.4
				c9.9,0.4,18-7.4,18-17.2v-29.6c0-0.1-0.1-0.2-0.2-0.2c0.1,0,0.2-0.1,0.2-0.2v-31.4c0-1.9,0.3-4.3,0.8-7.2
				c0.5-2.9,1.7-5.7,3.4-8.5c1.7-2.8,4.3-5.1,7.6-7.1c3.3-1.9,7.8-2.9,13.6-2.9h0c5.8,0,10.3,1,13.6,2.9c3.3,1.9,5.8,4.3,7.6,7.1
				c1.7,2.8,2.9,5.6,3.4,8.5c0.5,2.9,0.8,5.3,0.8,7.2v31.4c0,0.1,0.1,0.2,0.2,0.2c-0.1,0-0.2,0.1-0.2,0.2v29.6
				c0,9.3,7.4,16.8,16.6,17.1c0.2,0,0.4,0.1,0.6,0.1c0.2,0,0.3,0,0.4,0c0.2,0,0.3,0,0.4,0c0.2,0,0.4-0.1,0.6-0.1
				c9.2-0.4,16.6-7.8,16.6-17.1v-29.6c0-0.1-0.1-0.2-0.2-0.2c0.1,0,0.2-0.1,0.2-0.2v-31.4c0-1.9,0.3-4.3,0.8-7.2
				c0.5-2.9,1.7-5.7,3.4-8.5c1.7-2.8,4.3-5.1,7.6-7.1c3.3-1.9,7.8-2.9,13.6-2.9h0c5.8,0,10.3,1,13.6,2.9c3.3,1.9,5.8,4.3,7.6,7.1
				c1.7,2.8,2.9,5.6,3.4,8.5c0.5,2.9,0.8,5.3,0.8,7.2v31.4c0,0.1,0.1,0.2,0.2,0.2c-0.1,0-0.2,0.1-0.2,0.2v29.6
				c0,9.8,8.2,17.7,18,17.2c9.4-0.4,16.5-8.9,16.5-18.4v-28.5c0-0.1-0.1-0.2-0.2-0.2c0.1,0,0.2-0.1,0.2-0.2V116.5z"/>
			<path class="st0" d="M972.8,59.8c-5.3,0-10.4,2.5-13.6,6.7c-4.1,5.2-3.6,11.2-3.6,17.5c0,16,0,31.9,0,47.9c0,5.6,0,11.2-1.7,16.5
				c-6.4,20.9-39.3,22.2-47.4,1.9c-2.2-5.5-2.2-11.5-2.2-17.4c0-16.1,0-32.1,0.1-48.2c0-6.2,0.6-12.4-3.2-17.7
				c-3.2-4.5-8.5-7.2-14-7.2c-9.5,0-17.3,7.7-17.3,17.3v61.4c0,20.3,7.8,40,25.6,51.1c17.9,11.2,43.8,11.1,60.2-3.1
				c-0.7,0.6,0.1,6.6,0.1,7.8c0,3.1,0,6.2-0.3,9.2c-0.5,5.6-1.9,11.7-5.4,16.2c-6,7.6-16.7,9.5-25.8,7.7c-10-2-18.4-12.6-29.1-7.6
				c-5.7,2.6-9.5,8.7-9.4,15c0.1,6.9,5.2,12.1,10.6,15.6c10,6.4,22,9.7,33.9,9.7c9.1,0,17.2-1.4,24.6-4.3c7.3-2.9,13.6-7,18.8-12.3
				c5.2-5.3,9.3-11.7,12.2-19.1c2.9-7.4,4.3-15.6,4.3-24.7V77C990,67.5,982.3,59.8,972.8,59.8z"/>
			<path class="st0" d="M841,162.2c0,0-0.6-0.2-0.9-0.3c-2.7-0.8-5.1-2.1-6.9-3.8c-4.3-3.8-6.4-10.5-6.4-19.9V90.7h8.9
				c8.4,0,15.3-6.8,15.3-15.3s-6.8-15.3-15.3-15.3h-8.9v-17c0-9.5-7.7-17.2-17.3-17.2c-9.5,0-17.2,7.7-17.2,17.2V138
				c0,4.5,0.4,25.5,10.8,38.2c6.4,7.7,17.9,18.2,32.2,18.2l0,0v0c9.2,0,16.6-7.4,16.6-16.6C851.9,170.6,847.3,164.5,841,162.2z"/>
			<circle class="st0" cx="751.1" cy="20.3" r="17"/>
			<path class="st0" d="M751.3,59.6c-9.5,0-17.2,7.7-17.2,17.2v100.1c0,9.5,7.7,17.2,17.2,17.2h0c9.5,0,17.2-7.7,17.2-17.2V76.8
				C768.6,67.3,760.9,59.6,751.3,59.6z"/>
			<path class="st0" d="M335.8,76.8c-6.2-6.4-13.4-11.3-21.6-14.9c-8.2-3.6-17-5.4-26.4-5.4c-9.4,0-18.2,1.8-26.4,5.4
				c-8.2,3.6-15.3,8.5-21.4,14.9c-6.1,6.4-10.9,13.8-14.5,22.5c-3.6,8.6-5.4,18-5.4,28.1c0,10.1,1.8,19.4,5.4,28
				c3.6,8.5,8.4,15.9,14.5,22.2c6.1,6.3,13.2,11.2,21.4,14.8c8.2,3.6,17,5.4,26.4,5.4c9.4,0,18.2-1.8,26.4-5.4
				c8.2-3.6,15.4-8.5,21.6-14.8c6.2-6.3,11.1-13.7,14.6-22.2c3.6-8.5,5.4-17.9,5.4-28c0-10.1-1.8-19.5-5.4-28.1
				C346.9,90.6,342,83.1,335.8,76.8z M318.7,143.3c-1.7,4.7-4.2,8.8-7.2,12.2c-3.1,3.4-6.6,6-10.6,7.8c-4,1.8-8.3,2.7-12.9,2.7
				c-4.5,0-8.9-0.9-13-2.7c-4.1-1.8-7.7-4.4-10.6-7.8c-3-3.4-5.3-7.4-7.1-12.2c-1.7-4.7-2.6-9.9-2.6-15.7c0-5.7,0.9-11.1,2.6-15.9
				c1.7-4.9,4.1-9.1,7.1-12.5c3-3.5,6.5-6.2,10.6-8.1c4.1-1.9,8.4-2.9,13-2.9c4.5,0,8.8,1,12.9,2.9c4,1.9,7.6,4.6,10.6,8.1
				c3.1,3.5,5.5,7.7,7.2,12.5c1.7,4.9,2.6,10.2,2.6,15.9C321.3,133.4,320.4,138.6,318.7,143.3z"/>
			<path class="st0" d="M442,56.8c-12.6,0-24.4,3.5-34.6,9.5V17.2c0-9.5-7.7-17.2-17.2-17.2s-17.2,7.7-17.2,17.2v109.9c0,0,0,0,0,0
				c0,38.8,30.9,70.3,69.1,70.3c38.2,0,69.1-31.5,69.1-70.3C511.1,88.3,480.2,56.8,442,56.8z M442,165.4
				c-19.1,0-34.6-17.1-34.6-38.2c0-21.1,15.5-38.2,34.6-38.2c19.1,0,34.6,17.1,34.6,38.2C476.6,148.3,461.1,165.4,442,165.4z"/>
			<circle class="st0" cx="548.3" cy="20.3" r="17"/>
			<path class="st0" d="M548.6,59.6c-9.5,0-17.2,7.7-17.2,17.2v100.1c0,9.5,7.7,17.2,17.2,17.2h0c9.5,0,17.2-7.7,17.2-17.2V76.8
				C565.8,67.3,558.1,59.6,548.6,59.6z"/>
			<path class="st0" d="M703.5,59.2c-8.7-3.9-18.9,0-22.8,8.7l-30.7,69l-30.7-69c-3.9-8.7-14.1-12.6-22.8-8.7s-12.6,14.1-8.7,22.8
				L634.1,186c2.7,6.1,8.6,9.8,14.9,10.1c0.3,0,0.7,0.1,1,0.1c0.3,0,0.7-0.1,1-0.1c6.3-0.3,12.1-4,14.9-10.1l46.3-104.1
				C716.1,73.2,712.2,63,703.5,59.2z"/>
		</g>
	</g>
</g>
</svg>
