<svg id="Layer_1" data-name="Layer 1" xmlns="http://www.w3.org/2000/svg" viewBox="0 0 250 250"><defs><style>.cls-1,.cls-2,.cls-3{fill:#68bc49;}.cls-1{opacity:0;}.cls-3{fill-rule:evenodd;}</style></defs><title>subway-logo</title><rect class="cls-1" width="250" height="250"/><path class="cls-2" d="M224.49,113.66l-1.59,5.15,14.6-5.88-8.36-13.52-1.65,5.16s-6.78-.7-10.52,1.2c-3.07,1.55-5.52,3.57-9.06,7.38a77.06,77.06,0,0,0-4.95,6.6l-2-15.17H190.32L194,128.33l-6.35,18.12h12.59s2.76-8,3-8.73a57.13,57.13,0,0,1,6.61-12.54c4.55-5.93,10.09-11.7,14.68-11.53h0Z"/><path class="cls-2" d="M79.26,104.93l-8.82,26.35a17.46,17.46,0,0,1-1.51,3.66,3.65,3.65,0,0,1-3.27,2,1.7,1.7,0,0,1-1.92-2.05,14.84,14.84,0,0,1,1-3.66l8.8-26.29H62.17L53,132.28c-1.69,5-4,15.2,9.11,15.2s17.6-10.15,19.29-15.2l9.15-27.35H79.26Z"/><path class="cls-2" d="M146.14,146.47l22.43-41.83h-11l-12.24,26c0.58-3.05,4.53-26,4.53-26h-9.71s-11.26,23-12.63,26.13l5-26.13H121.31l-4.68,41.83h11l12.15-26.19c-0.58,2.88-4.55,26.19-4.55,26.19h10.93Z"/><path class="cls-3" d="M173.36,104.65h15.45l-5,41.88h-12l1.57-6.76H165l-3.62,6.64h-10.5l22.47-41.76h0Zm-3.88,26.55h5.67l2.54-15.33-8.21,15.33h0Z"/><path class="cls-2" d="M21.11,150.58l-8.61-14,15.15-6.22L26,135.63A10.51,10.51,0,0,0,32.06,137c1.82-.11,3.92-0.9,4.56-2.43,0.44-1-.14-3.24-1.56-4.71a17.88,17.88,0,0,1-3.54-5.72,16.58,16.58,0,0,1-.44-7.9c0.82-3.5,5.32-12.58,17.74-12a20.82,20.82,0,0,1,8.65,2.74l-4.61,8.78c-5.25-3.1-8.4-2-9.6.88s0.81,5.6,2.62,7.72C48.2,127,50,129.86,50,133.22c0,7.85-8.42,14.21-18.81,14.21a23.62,23.62,0,0,1-8.59-1.57l-1.53,4.72h0Z"/><path class="cls-3" d="M99.84,121.11l2.52-7.28h1.91c1.59,0,4.53.25,3.1,3.83-1.13,2.83-4.22,3.45-6,3.45H99.84Zm-2.09,8.8c3.92-.18,6.3,1.33,5.7,4s-2.78,3.6-5.2,3.6H95.17l2.58-7.62h0ZM80.38,146.6H96.59c5.73,0,14.95-1.92,17.82-10.52A9.73,9.73,0,0,0,110,124.79c3.26-1.16,6.44-5.17,7.36-8.37,2.59-9.1-2.84-11.66-9.19-11.66H94.35l-14,41.85h0Z"/><path class="cls-2" d="M204.95,144.82a1.69,1.69,0,1,1,1.69,1.74A1.68,1.68,0,0,1,204.95,144.82Zm1.69,2.09a2.08,2.08,0,1,0-2.11-2.09A2.08,2.08,0,0,0,206.64,146.91ZM206.2,145h0.42l0.63,1h0.41L207,145a0.62,0.62,0,0,0,.62-0.66,0.68,0.68,0,0,0-.85-0.68h-0.91V146h0.36v-1Zm0-.31v-0.74h0.5c0.25,0,.52.06,0.52,0.35s-0.28.39-.58,0.39H206.2Z"/></svg>