<?xml version="1.0" encoding="utf-8"?>
<!-- Generator: Adobe Illustrator 22.1.0, SVG Export Plug-In . SVG Version: 6.00 Build 0)  -->
<svg version="1.1" id="Layer_1" xmlns="http://www.w3.org/2000/svg" xmlns:xlink="http://www.w3.org/1999/xlink" x="0px" y="0px"
	 viewBox="0 0 250 250" style="enable-background:new 0 0 250 250;" xml:space="preserve">
<style type="text/css">
	.st0{fill:#68BC49;fill-opacity:0;}
	.st1{fill:#FFC20D;}
	.st2{fill:#009132;}
</style>
<title>subway-logo</title>
<path class="st0" d="M0,0h250v250H0V0z"/>
<g>
	<path class="st1" d="M49.3,132.6c0,5.6-3.2,8.9-8.3,9.9c-1.4,0.3-3.7,0.3-5.3,0.3l-12.3-0.1v4.7l-10.8-8.9l10.8-9v4.7l13.8,0.1
		c1.3,0,1.9-0.7,1.9-1.5c0-1.4-1.4-1.9-5.2-3.7c-6.3-3-11.2-5.1-11.2-12c0-5.3,3.8-9,9.5-9.8c1.1-0.1,3.2-0.2,4.6-0.2
		c2.8,0,10.7,0.2,10.7,0.2v8.6l-13-0.2c-1.1,0-1.7,0.7-1.7,1.5c0,1.1,0.9,1.6,4.6,3.3C45,124.1,49.3,126,49.3,132.6z M69.6,131.9
		c0,1.6-1.4,2.9-4,2.9c-2.7,0-4-1.3-4-2.9v-24.6H51.2v25.5c0,5.6,4.7,11,14.4,11c9.3,0,14.4-5.3,14.4-11v-25.5H69.6V131.9z
		 M112.6,132.1c0,7.1-4.7,10.9-11.8,10.9H83.3v-35.7h16.9c7.5,0,11.4,4.2,11.4,9.8c0,2.8-1.3,5.3-4,7
		C110.7,125.8,112.6,128.3,112.6,132.1z M93.7,121.4l4.8,0c1.8,0,2.7-1.3,2.7-3.2c0-1.9-0.9-3.2-2.7-3.2h-4.8V121.4z M102,131.6
		c0-2.1-1-3.4-2.9-3.4h-5.3v6.8H99C101,135,102,133.6,102,131.6z"/>
	<g>
		<path class="st2" d="M147.6,107.3H158v25.1c0,5.8-4.1,11.1-12.8,11.1c-3.7,0-6.6-1.1-8.7-2.8c-2.1,1.7-4.9,2.8-8.4,2.8
			c-9.3,0-13.1-5.3-13.1-11.1v-25.1h10.4v24.9c0,1,0.6,2.3,2.9,2.3c2.4,0,3-1.2,3-2.3v-24.9h10.4v24.9c0,1,0.6,2.3,2.9,2.3
			c2.4,0,3-1.2,3-2.3V107.3z M202.8,121.3l0-14h-10.3v15c0,5,3.4,8.8,9.1,10.3l0,10.3h10.6v-10.3c5.8-1.6,9-5.3,9-10.3v-5.5
			c0-0.5,0.3-0.8,0.9-0.8l4.6,0v4.5l10.8-9l-10.8-8.9v4.5h-7.2c-6.1,0-8.7,3.5-8.7,8.6v5.6c0,1.3-0.9,2.9-4,2.9
			C203.7,124.2,202.8,122.6,202.8,121.3z M189.9,117.4v25.5h-10.4v-10.3h-7.9l0,10.3h-10.4v-25.5c0-6.4,5.2-11.2,14.3-11.2
			C184.6,106.2,189.9,111,189.9,117.4z M179.5,124.4l0-6.4c0-1.7-1.2-2.9-3.9-2.9c-2.8,0-3.9,1.2-3.9,2.9v6.4H179.5z"/>
		<path class="st2" d="M218.7,140.7c0-0.3-0.3-0.5-0.6-0.5h-0.9v1.9h0.4v-0.7h0.4c0.2,0,0.4,0.1,0.4,0.3v0.4h0.4v-0.5
			c0-0.2-0.1-0.3-0.3-0.4v0C218.6,141.1,218.7,141,218.7,140.7z M218,141.1h-0.5v-0.6h0.5c0.2,0,0.3,0.1,0.3,0.3
			C218.3,141,218.2,141.1,218,141.1z M217.9,139.3c-1,0-1.9,0.9-1.9,1.9c0,1,0.9,1.9,1.9,1.9c1,0,1.9-0.9,1.9-1.9
			C219.8,140.1,218.9,139.3,217.9,139.3z M217.9,142.8c-0.9,0-1.6-0.7-1.6-1.6c0-0.9,0.7-1.6,1.6-1.6c0.9,0,1.6,0.7,1.6,1.6
			C219.4,142.1,218.7,142.8,217.9,142.8z"/>
	</g>
</g>
</svg>
