<?xml version="1.0" encoding="utf-8"?>
<!-- Generator: Adobe Illustrator 22.1.0, SVG Export Plug-In . SVG Version: 6.00 Build 0)  -->
<svg version="1.1" id="Layer_1" xmlns="http://www.w3.org/2000/svg" xmlns:xlink="http://www.w3.org/1999/xlink" x="0px" y="0px"
	 viewBox="0 0 680 135.6" style="enable-background:new 0 0 680 135.6;" xml:space="preserve">
<style type="text/css">
	.st0{fill:#FFC20D;}
	.st1{fill:#009132;}
</style>
<g>
	<path class="st0" d="M111.1,90.8c0,16.8-9.5,26.8-25.1,30.1c-4.1,0.8-11.3,0.9-16.1,0.9l-37.2-0.3v14.1L0,108.6l32.7-27.1v14.2
		L74.5,96c4,0.1,5.6-2.2,5.6-4.6c0-4.3-4.1-5.7-15.9-11.3c-18.9-9-33.8-15.5-33.8-36.2c0-16.1,11.6-27.3,28.7-29.5
		c3.5-0.4,9.8-0.6,14-0.5c8.6,0.1,32.4,0.5,32.4,0.5v25.9l-39.2-0.6c-3.4-0.1-5.1,2.1-5.1,4.4c0,3.3,2.7,4.7,13.8,9.9
		C98.3,65,111.1,70.8,111.1,90.8z M172.4,88.7c0,4.8-4.1,8.7-12,8.7c-8.1,0-12-3.9-12-8.7V14.2h-31.6v77c0,17.1,14.1,33.1,43.6,33.1
		c28,0,43.6-15.9,43.6-33.1v-77h-31.6V88.7z M302.4,89.2c0,21.3-14.3,32.8-35.5,32.8H214V14.2h51.1c22.8,0,34.5,12.8,34.5,29.5
		c0,8.6-4,15.9-12,21.2C296.8,70.1,302.4,77.9,302.4,89.2z M245.3,57l14.6,0c5.5,0,8.1-4,8.1-9.7c0-5.9-2.6-9.6-8.1-9.6h-14.6V57z
		 M270.4,87.7c0-6.4-3-10.2-8.9-10.2h-16.2V98h16.2C267.5,98,270.4,93.9,270.4,87.7z"/>
	<g>
		<path class="st1" d="M408.2,14.2h31.5v76c0,17.6-12.5,33.6-38.8,33.6c-11.2,0-20-3.4-26.4-8.4c-6.3,5-14.7,8.4-25.3,8.4
			c-28.2,0-39.7-16-39.7-33.6v-76h31.5v75.3c0,3.1,1.7,6.9,8.8,6.9c7.2,0,9-3.7,9-6.9V14.2h31.5v75.3c0,3.2,1.7,6.9,8.9,6.9
			c7.2,0,8.9-3.6,8.9-6.9V14.2z M575.2,56.6l0-42.4h-31.2v45.5c0,15,10.3,26.5,27.6,31.1l0,31.2h31.9V90.8
			c17.5-4.8,27.3-16.2,27.3-31.1V43c0-1.6,0.8-2.5,2.6-2.5l14,0v13.6L680,27L647.3,0v13.6h-21.7c-18.4,0-26.1,10.6-26.1,26v17
			c0,4.1-2.8,8.8-12.1,8.8C577.9,65.4,575.2,60.6,575.2,56.6z M536.2,44.9v77h-31.4V90.8h-23.8l0,31.2h-31.4v-77
			c0-19.3,15.9-33.9,43.3-33.9C520,11.1,536.2,25.5,536.2,44.9z M504.8,66l0-19.2c0-5.1-3.6-8.8-11.9-8.8c-8.4,0-11.9,3.7-11.9,8.8
			V66H504.8z"/>
		<path class="st1" d="M623.2,115.4c0-1-0.8-1.5-1.8-1.5h-2.8v5.6h1.1v-2.1h1.3c0.7,0,1.1,0.3,1.1,1v1.1h1.1v-1.5
			c0-0.6-0.4-1-0.9-1.1v0C622.9,116.5,623.2,116,623.2,115.4z M621.1,116.4h-1.5v-1.7h1.5c0.5,0,0.9,0.3,0.9,0.8
			C622,116.1,621.6,116.4,621.1,116.4z M620.7,111c-3.2,0-5.8,2.6-5.8,5.8c0,3.2,2.6,5.8,5.8,5.8c3.2,0,5.8-2.6,5.8-5.8
			C626.4,113.6,623.8,111,620.7,111z M620.7,121.5c-2.6,0-4.8-2.1-4.8-4.8c0-2.6,2.1-4.7,4.8-4.7c2.6,0,4.7,2.1,4.7,4.7
			C625.4,119.3,623.3,121.5,620.7,121.5z"/>
	</g>
</g>
</svg>
