<svg id="Layer_1" data-name="Layer 1" xmlns="http://www.w3.org/2000/svg" viewBox="0 0 250 250"><defs><style>.cls-1{fill:#68bc49;opacity:0;}.cls-2{fill:#1d355b;fill-rule:evenodd;}</style></defs><title>supercuts-logo</title><rect class="cls-1" width="250" height="250"/><path class="cls-2" d="M70.61,109.86l-3.08,17.49C66,136,63,140.48,54.3,140.5c-6.62,0-10.2-4.53-8.67-13.16l3.08-17.49h8.6l-2.9,16.47c-0.41,2.31-.7,5.82,1.59,5.82s2.71-3.51,3.12-5.82L62,109.86h8.6Z" transform="translate(0)"/><path class="cls-2" d="M82.71,109.86H71.83l-5.21,29.57h8.28l1.57-8.9h4.39c4.8,0,8.47-3.76,9.54-9.8C91.69,113.38,88.23,109.86,82.71,109.86Zm-0.47,10.51c-0.42,2.39-2.11,2.71-3.61,2.71H77.78l0.91-5.14H79.5C80.91,117.93,82.65,118.05,82.24,120.36Z" transform="translate(0)"/><polygon class="cls-2" points="93.54 109.86 108.46 109.86 107.03 117.93 101.01 117.93 100.52 120.76 105.91 120.76 104.56 128.44 99.16 128.44 98.65 131.34 104.92 131.34 103.5 139.42 88.32 139.42 93.54 109.86 93.54 109.86"/><path class="cls-2" d="M128.57,120.13c1.31-7.45-2.71-10.27-8-10.27H110.15l-5.21,29.57h8.41l1.67-9.49h0.16l2.09,9.49h9.91l-3.45-9.61A5.38,5.38,0,0,0,122.6,128l0-.24C126.07,126.48,127.78,124.6,128.57,120.13Zm-8.47.35c-0.39,2.2-1.85,2.47-3.26,2.47h-0.6l0.89-5h0.66C119.27,117.93,120.5,118.21,120.1,120.48Z" transform="translate(0)"/><path class="cls-2" d="M153.82,115.5a10.08,10.08,0,0,0-7.29-2.9c-6.63,0-12.66,5.53-13.81,12.08s2.9,12,9.49,12a14,14,0,0,0,8.42-3.06L149.85,138a18.14,18.14,0,0,1-8.13,2.08c-8.43,0-14.23-6.71-12.72-15.25a19.32,19.32,0,0,1,18.47-15.57,12.5,12.5,0,0,1,7.1,2l-0.75,4.27h0Z" transform="translate(0)"/><path class="cls-2" d="M161.24,109.86l-3.08,17.45c-0.85,4.82-.19,9.29,5.5,9.29s7.92-4.47,8.78-9.29l3.08-17.45h3.69l-3.3,18.7c-1.15,6.51-6.06,11.49-12.85,11.49s-9.94-5-8.8-11.49l3.3-18.7h3.69Z" transform="translate(0)"/><polygon class="cls-2" points="186.26 139.42 182.57 139.42 187.19 113.23 180.17 113.23 180.76 109.86 198.49 109.86 197.89 113.23 190.88 113.23 186.26 139.42 186.26 139.42"/><path class="cls-2" d="M212.75,115.46a4.11,4.11,0,0,0-4.25-2.78c-2.35,0-5.22,1.61-5.68,4.2-0.41,2.31,1.65,3.53,3.37,4.24l2,0.82c3.91,1.65,6.63,4,5.76,8.9A11.31,11.31,0,0,1,202.84,140c-4.78,0-7.89-3.53-7.68-8.27L199,131a4.53,4.53,0,0,0,4.74,5.61,6.92,6.92,0,0,0,6.47-5.76c0.56-3.18-1.75-4.55-4.11-5.61l-1.89-.86c-3.12-1.45-5.84-3.37-5.11-7.49,0.84-4.78,5.58-7.65,10.05-7.65A6.84,6.84,0,0,1,216,113.7l-3.25,1.76h0Z" transform="translate(0)"/><path class="cls-2" d="M45.46,111.48l-1.35,7.35a12.15,12.15,0,0,0-4.66-1.53c-2,0-2.54,1.82-.49,3.61,1.78,1.56,5.88,4.11,5.39,10.29-0.5,6.35-6.37,9.68-11.15,9.56A18.54,18.54,0,0,1,25,138.2l1.47-8s3.55,2.88,6.25,2.45,2.82-2.82,1.47-3.92-6.13-4-6.13-9.37,4.6-9.93,11.34-9.93c0,0,3.74.18,6.07,2h0Z" transform="translate(0)"/><path class="cls-2" d="M223.47,111.64a0.9,0.9,0,0,0-1.12-.86H221V114h0.47v-1.5h0.6l0.83,1.5h0.54l-0.82-1.5A0.83,0.83,0,0,0,223.47,111.64Zm-1.51.42h-0.5v-0.81h0.81c0.39,0,.74,0,0.74.44S222.4,112.06,222,112.06Z" transform="translate(0)"/><path class="cls-2" d="M222.1,109.5a2.89,2.89,0,1,0,2.9,2.89A2.87,2.87,0,0,0,222.1,109.5Zm0,5.31a2.42,2.42,0,1,1,2.43-2.42A2.42,2.42,0,0,1,222.1,114.81Z" transform="translate(0)"/></svg>